Coordinates
version=1
nRows=29
nColumns=24
inDegrees=yes

Units are S.I. units (second, meters, Newtons, ...)
Angles are in degrees.

endheader
time	pelvis_tilt	pelvis_list	pelvis_rotation	pelvis_tx	pelvis_ty	pelvis_tz	hip_flexion_r	hip_adduction_r	hip_rotation_r	knee_angle_r	ankle_angle_r	subtalar_angle_r	mtp_angle_r	hip_flexion_l	hip_adduction_l	hip_rotation_l	knee_angle_l	ankle_angle_l	subtalar_angle_l	mtp_angle_l	lumbar_extension	lumbar_bending	lumbar_rotation
      4.35500000	     -9.29090861	     -1.27819315	     -3.31794943	     -1.51075792	     -0.00388325	     -0.70011556	      6.19295153	      5.30593950	     -5.26703262	     -9.51318766	      5.86486318	     -9.84840846	      0.60354355	     33.64577085	     -6.58180184	    -16.29224725	    -51.52464936	     -2.72186707	    -12.78746745	      2.56204775	      6.52643158	      4.41043128	      2.02865835
      4.36000000	     -9.40830442	     -1.22828772	     -3.43889767	     -1.50605292	     -0.00431723	     -0.69982267	      5.92749705	      5.26625560	     -5.23485541	     -9.35676638	      6.04031754	     -9.70216431	      0.88154949	     33.99693272	     -6.53625906	    -16.62757367	    -50.10270861	     -2.27120885	    -12.72785359	      1.71800984	      6.56633025	      4.33870855	      2.25838771
      4.36500000	     -9.57205472	     -1.20308486	     -3.52202483	     -1.50133456	     -0.00484497	     -0.69954509	      5.70741662	      5.25902198	     -5.18673276	     -9.20419431	      6.21503268	     -9.62636260	      0.92933426	     34.37364823	     -6.49466274	    -16.89456531	    -48.58693512	     -1.98963841	    -12.67380382	      1.62266284	      6.65667698	      4.28273299	      2.41597696
      4.37000000	     -9.64177856	     -1.15841874	     -3.69743708	     -1.49660693	     -0.00526589	     -0.69921445	      5.40057109	      5.22140432	     -5.13253120	     -9.07755089	      6.42879007	     -9.36570770	      1.06928935	     34.58264303	     -6.48818612	    -17.32168034	    -46.98925140	     -1.66616988	    -12.58721227	      1.23460066	      6.64089990	      4.22296146	      2.72339794
      4.37500000	     -9.79438788	     -1.14297909	     -3.72595204	     -1.49183541	     -0.00585834	     -0.69904376	      5.16012121	      5.21341715	     -5.13881917	     -8.91743365	      6.61323799	     -9.30188699	      1.13358576	     34.88970579	     -6.41057217	    -17.55804397	    -45.33808708	     -1.36991143	    -12.41522403	      1.07522653	      6.72784261	      4.16799061	      2.80407911
      4.38000000	     -9.74968629	     -1.09163788	     -3.80759616	     -1.48699037	     -0.00622094	     -0.69893554	      4.70755495	      5.12873793	     -5.27686028	     -8.75601280	      6.85257502	     -8.90425221	      1.55050040	     34.90893963	     -6.30597249	    -17.93818300	    -43.61708158	     -0.81856883	    -12.07780842	     -0.04973293	      6.60452301	      4.08738208	      3.00896971
      4.38500000	     -9.95198402	     -1.10248458	     -3.91925837	     -1.48224276	     -0.00693354	     -0.69869698	      4.54519510	      5.15665946	     -5.22490620	     -8.64029803	      7.04287018	     -8.78626894	      1.64552065	     35.19620207	     -6.31401183	    -18.30526124	    -41.85660848	     -0.52506746	    -11.76402718	     -0.15350101	      6.73197546	      4.07473774	      3.20806412
      4.39000000	    -10.06534240	     -1.10009580	     -4.00565037	     -1.47744297	     -0.00754921	     -0.69850901	      4.27420501	      5.15489536	     -5.24357018	     -8.50582424	      7.23921057	     -8.59452681	      1.75569118	     35.33477100	     -6.27702888	    -18.67142516	    -40.00640040	     -0.23003231	    -11.32763248	     -0.23684897	      6.76662890	      4.04156897	      3.36258628
      4.39500000	    -10.16118304	     -1.10410059	     -4.06869866	     -1.47260705	     -0.00817352	     -0.69834248	      3.98233218	      5.15515513	     -5.30442597	     -8.37474775	      7.43732384	     -8.38035008	      1.88534674	     35.42053254	     -6.22693090	    -19.04010792	    -38.09900514	      0.03798484	    -10.79211878	     -0.25328609	      6.79153004	      4.00262659	      3.49318868
      4.40000000	    -10.25610166	     -1.11425570	     -4.12288801	     -1.46775963	     -0.00882990	     -0.69821746	      3.69059988	      5.15780894	     -5.38592838	     -8.24747638	      7.63668700	     -8.15588678	      2.03133390	     35.47456409	     -6.16930006	    -19.41800913	    -36.14532237	      0.28394884	    -10.15578082	     -0.16376277	      6.81212771	      3.97336978	      3.60686737
      4.40500000	    -10.33473604	     -1.12809149	     -4.17786928	     -1.46288418	     -0.00948997	     -0.69808980	      3.38472796	      5.16238255	     -5.49943982	     -8.12916267	      7.83122197	     -7.91382929	      2.20263436	     35.47883206	     -6.10943288	    -19.80944282	    -34.15278694	      0.49110211	     -9.41107858	      0.06223022	      6.81768408	      3.94037269	      3.72309655
      4.41000000	    -10.41000098	     -1.14603418	     -4.22554669	     -1.45796750	     -0.01017820	     -0.69800315	      3.07080394	      5.16645616	     -5.61329680	     -8.00966838	      8.02686069	     -7.65552426	      2.38531990	     35.45787110	     -6.04650653	    -20.23191754	    -32.14392690	      0.66376116	     -8.56467263	      0.42956904	      6.82310086	      3.91588956	      3.81074683
      4.41500000	    -10.36171921	     -1.12277542	     -4.25003576	     -1.45297849	     -0.01074237	     -0.69796676	      2.61862232	      5.10551755	     -5.82758492	     -7.87270704	      8.21346485	     -7.34259624	      2.91305654	     35.24332382	     -5.88874572	    -20.59766357	    -30.00847698	      0.47889088	     -7.89202826	      1.77671468	      6.70600766	      3.83117780	      3.90351907
      4.42000000	    -10.52402959	     -1.18341360	     -4.30712236	     -1.44802012	     -0.01158537	     -0.69784655	      2.41026171	      5.16995640	     -5.93591708	     -7.78525264	      8.37666435	     -7.14390434	      3.00467404	     35.31424576	     -5.88544406	    -21.04874668	    -28.07062432	      0.65391184	     -6.79460769	      2.19098127	      6.80987907	      3.84722387	      3.97179774
      4.42500000	    -10.49225676	     -1.16562842	     -4.35653777	     -1.44296220	     -0.01219313	     -0.69778547	      1.99011641	      5.11817858	     -6.13201465	     -7.68609012	      8.54496554	     -6.84707333	      3.46638250	     35.08223796	     -5.75165405	    -21.48413212	    -25.92970417	      0.23561571	     -6.04452728	      4.52351526	      6.71520468	      3.77264628	      4.09273694
      4.43000000	    -10.48507509	     -1.12119125	     -4.42636511	     -1.43790513	     -0.01280211	     -0.69775497	      1.60988765	      5.03808372	     -6.23699328	     -7.62484153	      8.75882972	     -6.55072180	      3.52736847	     34.90804749	     -5.59668675	    -21.93654446	    -23.98000156	      0.34609467	     -4.95584886	      4.97620235	      6.64488521	      3.67974966	      4.22020265
      4.43500000	    -10.37119673	     -1.01558704	     -4.42609680	     -1.43272976	     -0.01324892	     -0.69780982	      1.10226094	      4.86938571	     -6.48485958	     -7.53585576	      8.95417937	     -6.17571147	      3.85427066	     34.57506380	     -5.30510552	    -22.30720040	    -21.91532373	     -0.08080547	     -4.29373890	      6.94321316	      6.48673932	      3.49733004	      4.25400320
      4.44000000	    -10.37830889	     -0.90296362	     -4.50758043	     -1.42761100	     -0.01380214	     -0.69777901	      0.76909374	      4.70873248	     -6.59100223	     -7.52740701	      9.16285336	     -5.86572315	      3.93786620	     34.42630184	     -5.08333556	    -22.75544902	    -20.11707084	      0.03107519	     -3.25890443	      7.44027320	      6.44846533	      3.33253012	      4.38984734
      4.44500000	    -10.27831655	     -0.75363747	     -4.46493898	     -1.42248369	     -0.01420982	     -0.69791191	      0.32067059	      4.48082569	     -6.88809317	     -7.50866357	      9.35497972	     -5.46032137	      4.32845047	     34.16435419	     -4.72255387	    -22.98184143	    -18.28258576	     -0.37829721	     -2.67582292	      9.36763661	      6.29729877	      3.09866349	      4.37867462
      4.45000000	    -10.25201008	     -0.58079490	     -4.51951397	     -1.41738952	     -0.01467574	     -0.69795766	     -0.01454910	      4.24029361	     -6.96633342	     -7.55416426	      9.55283029	     -5.18641084	      4.38854497	     34.03289398	     -4.41479296	    -23.26616452	    -16.73751059	     -0.28217888	     -1.86410237	      9.63734033	      6.21815443	      2.86252432	      4.49484757
      4.45500000	    -10.17827431	     -0.41585053	     -4.50156830	     -1.41227242	     -0.01511792	     -0.69808987	     -0.39474351	      3.99635643	     -7.15984575	     -7.61858438	      9.76340912	     -4.84867723	      4.47826130	     33.88525177	     -4.06984070	    -23.36366478	    -15.33013207	     -0.25112232	     -1.20567444	     10.00316264	      6.09420293	      2.61422067	      4.51558005
      4.46000000	    -10.12035240	     -0.25057564	     -4.48450503	     -1.40714482	     -0.01559790	     -0.69827115	     -0.73502050	      3.74490833	     -7.32908659	     -7.73036396	      9.96970028	     -4.51680689	      4.59085676	     33.78163344	     -3.72945237	    -23.36321836	    -14.07816595	     -0.24543027	     -0.67461369	     10.35851668	      5.98383589	      2.37213683	      4.54890050
      4.46500000	    -10.07609351	     -0.09604120	     -4.46167341	     -1.40198196	     -0.01612494	     -0.69845440	     -1.05053794	      3.50746374	     -7.47177352	     -7.86712076	     10.16187674	     -4.24814718	      4.67861267	     33.71935439	     -3.40689856	    -23.24958825	    -12.99575421	     -0.23898926	     -0.25167746	     10.61606420	      5.89398497	      2.13684800	      4.56573250
      4.47000000	    -10.03682020	      0.04936102	     -4.44052540	     -1.39677927	     -0.01669402	     -0.69864867	     -1.34628601	      3.27818882	     -7.57323605	     -8.04201703	     10.34874707	     -4.01997142	      4.72363125	     33.68517725	     -3.10456028	    -23.03851621	    -12.08676417	     -0.21991985	      0.08076932	     10.77325410	      5.81556802	      1.90993578	      4.58443824
      4.47500000	    -10.06985687	      0.17251910	     -4.41594629	     -1.39152020	     -0.01737679	     -0.69886803	     -1.56065855	      3.08133542	     -7.56928253	     -8.23412130	     10.48764724	     -3.93671411	      4.72777229	     33.76045496	     -2.84287983	    -22.74359583	    -11.37364140	     -0.17571881	      0.36220925	     10.82353106	      5.82094743	      1.71285798	      4.57521295
      4.48000000	     -9.99821645	      0.31850386	     -4.40399864	     -1.38619821	     -0.01797476	     -0.69909928	     -1.86822183	      2.84062611	     -7.62148846	     -8.47474064	     10.67549281	     -3.72516885	      4.67535381	     33.71698466	     -2.56185337	    -22.38389250	    -10.79296376	     -0.14287131	      0.55423977	     10.85397369	      5.71946278	      1.48344255	      4.60418429
      4.48500000	    -10.02538227	      0.37915627	     -4.42990888	     -1.38095021	     -0.01874718	     -0.69927965	     -2.04382326	      2.70999799	     -7.54666188	     -8.75734005	     10.79780209	     -3.70388728	      4.67702688	     33.83378927	     -2.42319671	    -21.96857099	    -10.45651773	     -0.04299569	      0.76550893	     10.89759253	      5.70334763	      1.35088755	      4.71464815
      4.49000000	     -9.90176686	      0.53805900	     -4.38834328	     -1.37543670	     -0.01935242	     -0.69959735	     -2.39003307	      2.44094277	     -7.62676908	     -9.06996781	     11.02124682	     -3.44221080	      4.45157084	     33.73850265	     -2.11563120	    -21.46769651	    -10.15444914	     -0.06792663	      0.76534053	     10.84383788	      5.58108011	      1.10677080	      4.68140043
      4.49500000	     -9.91162056	      0.59676179	     -4.44125168	     -1.37009545	     -0.02017137	     -0.69976215	     -2.54278651	      2.30519306	     -7.51227694	     -9.44409063	     11.12806505	     -3.45065414	      4.45191454	     33.86022194	     -2.01932714	    -21.04446067	    -10.14165153	      0.02599252	      0.92593656	     10.89452764	      5.55970856	      0.96870373	      4.79248824
